HIERARCHY
ROOT Hips
{
    OFFSET 0.000000 0.000000 0.000000
    CHANNELS 6 Xposition Yposition Zposition Zrotation Xrotation Yrotation
    JOINT Spine
    {
        OFFSET -0.000000 8.339920 0.000000
        CHANNELS 3 Zrotation Xrotation Yrotation
        JOINT Spine1
        {
            OFFSET -0.000000 25.214485 0.000000
            CHANNELS 3 Zrotation Xrotation Yrotation
            JOINT Neck
            {
                OFFSET -0.000000 25.110935 2.282812
                CHANNELS 3 Zrotation Xrotation Yrotation
                JOINT Head
                {
                    OFFSET -0.000000 14.238888 -2.034127
                    CHANNELS 3 Zrotation Xrotation Yrotation
                    End Site
                    {
                        OFFSET -0.000000 25.426584 0.000000
                    }
                }
            }
            JOINT LeftShoulder
            {
                OFFSET 4.025024 23.158985 -0.185822
                CHANNELS 3 Zrotation Xrotation Yrotation
                JOINT LeftArm
                {
                    OFFSET 11.674057 0.000000 0.000000
                    CHANNELS 3 Zrotation Xrotation Yrotation
                    JOINT LeftForeArm
                    {
                        OFFSET 31.688633 0.000000 0.000000
                        CHANNELS 3 Zrotation Xrotation Yrotation
                        JOINT LeftHand
                        {
                            OFFSET 29.704493 0.000000 0.000000
                            CHANNELS 3 Zrotation Xrotation Yrotation
                            End Site
                            {
                                OFFSET 15.255952 0.000000 0.000000
                            }
                        }
                    }
                }
            }
            JOINT RightShoulder
            {
                OFFSET -4.099539 23.158985 -0.185822
                CHANNELS 3 Zrotation Xrotation Yrotation
                JOINT RightArm
                {
                    OFFSET -11.674057 0.000000 0.000000
                    CHANNELS 3 Zrotation Xrotation Yrotation
                    JOINT RightForeArm
                    {
                        OFFSET -31.688633 0.000000 0.000000
                        CHANNELS 3 Zrotation Xrotation Yrotation
                        JOINT RightHand
                        {
                            OFFSET -29.704493 0.000000 0.000000
                            CHANNELS 3 Zrotation Xrotation Yrotation
                            End Site
                            {
                                OFFSET -15.255952 0.000000 0.000000
                            }
                        }
                    }
                }
            }
        }
    }
    JOINT LeftUpLeg
    {
        OFFSET 10.170634 0.000000 0.000000
        CHANNELS 3 Zrotation Xrotation Yrotation
        JOINT LeftLeg
        {
            OFFSET -0.000000 -41.352962 0.000000
            CHANNELS 3 Zrotation Xrotation Yrotation
            JOINT LeftFoot
            {
                OFFSET -0.000000 -47.535004 0.000000
                CHANNELS 3 Zrotation Xrotation Yrotation
                JOINT LeftToeBase
                {
                    OFFSET -0.000000 -6.610912 15.255952
                    CHANNELS 3 Zrotation Xrotation Yrotation
                    End Site
                    {
                        OFFSET -0.000000 0.000000 4.068254
                    }
                }
            }
        }
    }
    JOINT RightUpLeg
    {
        OFFSET -10.170634 0.000000 0.000000
        CHANNELS 3 Zrotation Xrotation Yrotation
        JOINT RightLeg
        {
            OFFSET -0.000000 -41.352962 0.000000
            CHANNELS 3 Zrotation Xrotation Yrotation
            JOINT RightFoot
            {
                OFFSET -0.000000 -47.535004 0.000000
                CHANNELS 3 Zrotation Xrotation Yrotation
                JOINT RightToeBase
                {
                    OFFSET -0.000000 -6.610912 15.255952
                    CHANNELS 3 Zrotation Xrotation Yrotation
                    End Site
                    {
                        OFFSET -0.000000 0.000000 4.068254
                    }
                }
            }
        }
    }
}
MOTION
Frames:    9
Frame Time:    0.008333
33.356335    94.325226    40.372314    -1.837751    -1.797683    88.224037    -0.919086    -5.140014    -1.282842    4.789360    -0.451549    -1.222719    -8.386350    28.187790    -2.711016    6.314672    -4.342469    -2.667586    12.820479    0.595914    1.503406    -18.453075    -11.098149    5.144149    6.083263    -21.885149    4.888116    -1.817930    -22.149872    1.615504    -23.129772    1.815454    -8.417527    20.782253    -7.532965    3.015893    -2.774376    -11.598923    -1.495990    -14.081370    -11.537770    -0.798688    2.029046    8.908194    -1.299889    0.151567    -6.962505    6.619514    1.309695    -3.767511    7.818963    0.000000    0.000000    0.000000    4.008210    6.715941    5.244832    -2.844339    -4.012033    -1.977505    0.125997    -3.755562    -12.370315    0.000000    0.000000    0.000000    
33.356178    94.323395    40.375919    -1.829605    -1.805240    88.218979    -0.923632    -5.139071    -1.282645    4.782572    -0.453913    -1.222238    -8.314584    28.188705    -2.657868    6.262633    -4.345851    -2.613081    12.852456    0.598787    1.477716    -18.504292    -11.118219    5.127695    6.068701    -21.904037    4.855550    -1.665794    -22.164919    1.642091    -23.103975    1.823497    -8.446279    20.733961    -7.581451    3.033843    -2.717081    -11.715816    -1.451106    -14.499078    -11.627608    -0.978641    2.038350    8.917950    -1.298537    0.147578    -6.963955    6.656190    1.295752    -3.780616    7.787886    0.000000    0.000000    0.000000    4.009335    6.721236    5.280763    -2.834904    -4.004544    -1.985184    0.132018    -3.761543    -12.385821    0.000000    0.000000    0.000000    
33.355774    94.323029    40.377544    -1.822572    -1.803874    88.206749    -0.949387    -5.136249    -1.282514    4.807962    -0.464475    -1.220439    -8.266551    28.186497    -2.615516    6.201878    -4.331932    -2.574786    12.838375    0.598240    1.467726    -18.531271    -11.130520    5.102872    6.078397    -21.944981    4.839598    -1.567784    -22.202477    1.515328    -23.102524    1.815328    -8.461172    20.690317    -7.593287    3.033700    -2.802685    -11.524404    -1.471782    -14.000237    -11.467659    -0.764833    2.037008    8.932636    -1.298190    0.146074    -6.974319    6.656826    1.306858    -3.765835    7.807072    0.000000    0.000000    0.000000    4.004967    6.724668    5.278508    -2.831364    -4.003682    -1.969459    0.098219    -3.754144    -12.380107    0.000000    0.000000    0.000000    
33.355167    94.322060    40.379288    -1.817941    -1.808214    88.195801    -0.974467    -5.143717    -1.279829    4.831660    -0.452624    -1.216995    -8.213649    28.148325    -2.577680    6.174828    -4.292206    -2.532906    12.862969    0.598128    1.458409    -18.593887    -11.160826    5.061255    6.090484    -22.024530    4.829651    -1.358951    -22.278807    1.470471    -23.127090    1.859715    -8.467129    20.693050    -7.647356    3.021685    -2.772737    -11.606220    -1.424451    -14.302198    -11.530760    -0.888652    2.033766    8.934622    -1.275410    0.154274    -6.968226    6.637348    1.306875    -3.780591    7.816152    0.000000    0.000000    0.000000    4.007583    6.726687    5.257738    -2.826483    -3.999629    -1.946163    0.090962    -3.758368    -12.365977    0.000000    0.000000    0.000000    
33.354736    94.321671    40.383892    -1.808794    -1.818161    88.180679    -0.970369    -5.134032    -1.279245    4.809405    -0.474625    -1.215833    -8.105462    28.005556    -2.508288    6.058760    -4.048594    -2.469585    12.881981    0.599118    1.430375    -18.625628    -11.170513    5.055353    6.113643    -22.073385    4.840801    -1.294878    -22.328033    1.447704    -23.036444    1.825691    -8.496454    20.573181    -7.618012    3.047151    -2.774328    -11.593505    -1.433216    -14.319424    -11.517619    -0.892887    2.045844    8.949441    -1.259416    0.150577    -6.974861    6.674089    1.306545    -3.787615    7.780439    0.000000    0.000000    0.000000    4.018223    6.735667    5.255058    -2.826402    -3.998543    -1.940793    0.102322    -3.764174    -12.357944    0.000000    0.000000    0.000000    
33.352638    94.322731    40.383274    -1.810057    -1.818483    88.164497    -0.997763    -5.153062    -1.274366    4.838446    -0.458626    -1.210151    -8.072714    28.012291    -2.494784    6.054096    -4.068482    -2.452083    12.862909    0.584678    1.418873    -18.666658    -11.085491    4.997922    6.154408    -22.127207    4.883576    -1.078717    -22.383230    1.476939    -23.039074    1.822466    -8.517038    20.541018    -7.651984    3.056075    -2.779166    -11.597039    -1.447257    -14.314383    -11.519608    -0.908966    2.045900    8.953053    -1.271739    0.151693    -6.979054    6.680615    1.320849    -3.779406    7.796592    0.000000    0.000000    0.000000    4.019226    6.726998    5.234314    -2.831519    -3.994920    -1.933143    0.130749    -3.759157    -12.321692    0.000000    0.000000    0.000000    
33.351536    94.321846    40.383846    -1.801819    -1.822247    88.147079    -1.010928    -5.162033    -1.274561    4.853756    -0.433915    -1.210591    -8.039312    27.962852    -2.472635    6.032270    -4.021699    -2.427358    12.864232    0.570553    1.405377    -18.694670    -11.112721    4.983605    6.146786    -22.107832    4.886408    -0.841233    -22.360884    1.474821    -23.079964    1.791967    -8.509400    20.543085    -7.600773    3.029006    -2.776512    -11.631586    -1.455276    -14.333478    -11.539055    -1.031749    2.043423    8.961795    -1.258952    0.157039    -6.974487    6.667438    1.320629    -3.791500    7.817073    0.000000    0.000000    0.000000    4.019022    6.734468    5.266803    -2.823495    -3.993352    -1.975124    0.118430    -3.761688    -12.300119    0.000000    0.000000    0.000000    
33.350403    94.323013    40.385067    -1.797383    -1.824423    88.126518    -0.998998    -5.162460    -1.284178    4.823171    -0.441969    -1.220539    -8.032360    27.969957    -2.431386    6.049276    -4.026742    -2.380945    12.843926    0.582029    1.441844    -18.690027    -11.129351    4.943429    6.160218    -22.081476    4.872622    -0.645031    -22.332451    1.544088    -23.086502    1.771600    -8.496883    20.546267    -7.568187    3.041207    -2.796522    -11.652860    -1.449687    -14.457428    -11.557238    -1.048566    2.046426    8.970361    -1.255443    0.153972    -6.975349    6.657962    1.341300    -3.793552    7.838219    0.000000    0.000000    0.000000    4.020617    6.726518    5.234317    -2.818342    -3.976581    -1.926324    0.128267    -3.771939    -12.312875    0.000000    0.000000    0.000000    
33.347015    94.323799    40.385151    -1.795983    -1.831088    88.103615    -0.988519    -5.169322    -1.284594    4.801519    -0.436159    -1.221677    -8.017551    27.944170    -2.410871    6.075996    -4.001554    -2.352332    12.851535    0.585116    1.451806    -18.718437    -11.082866    4.912840    6.180278    -22.101179    4.911954    -0.413430    -22.351437    1.376552    -23.090780    1.767806    -8.493703    20.536024    -7.519852    3.046396    -2.810518    -11.661360    -1.468082    -14.422183    -11.569561    -1.025388    2.049698    8.974463    -1.241536    0.155837    -6.980811    6.702439    1.336885    -3.793273    7.802704    0.000000    0.000000    0.000000    4.028251    6.718781    5.231406    -2.822176    -3.967858    -1.928418    0.117391    -3.763822    -12.278277    0.000000    0.000000    0.000000    
